<svg width="98" height="30" viewBox="0 0 98 30" fill="none" xmlns="http://www.w3.org/2000/svg">
<path d="M39.9828 25.0345C39.569 24.931 39.1553 24.8276 38.7415 24.6724C36.1553 23.8448 34.6553 21.1552 35.3277 18.569C35.4311 18.1035 35.6897 17.8448 36.1553 17.9483C36.7759 18.0517 37.3449 18.2069 37.9656 18.2586C38.5346 18.3104 38.5863 18.569 38.5346 19.0862C38.3794 20.6897 38.9484 21.6207 40.1897 21.8793C41.3794 22.1379 42.6208 21.4655 43.0346 20.2759C43.5001 18.9828 42.9828 17.5345 41.7932 16.8104C41.5346 16.7069 41.2759 16.7069 41.069 16.7069C38.7932 16.7586 36.7759 16.1379 35.5863 14.069C34.3449 12 34.3449 9.36208 35.5346 7.29312C36.8277 5.22415 39.2587 4.18967 41.638 4.65519C42.2587 4.75863 42.8277 4.91381 43.4484 5.06898C43.9656 4.50001 44.5346 3.93105 45.0518 3.31036C45.2587 2.94829 45.7242 2.84484 46.0863 3.05174C46.1897 3.10346 46.2415 3.15519 46.2932 3.20691C48.0518 4.65519 47.6897 4.29312 46.6035 5.74139C46.2932 6.15519 45.9828 6.51725 45.6725 6.87932C47.3277 10.6035 47.0173 12.9828 44.5346 15.6724C45.9311 16.8621 46.6035 18.6724 46.2932 20.4828C45.9828 22.7069 44.3277 24.4655 42.1035 24.8793C41.8966 24.931 41.6897 24.9828 41.4311 25.0345H39.9828ZM43.5001 10.6035C43.6552 9.15519 42.569 7.86208 41.1208 7.75863C41.0173 7.75863 40.8621 7.75863 40.7587 7.75863C39.3104 7.75863 38.1208 8.89656 38.069 10.3966C38.069 10.5 38.069 10.5517 38.069 10.6552C37.9139 12.1035 39.0001 13.3966 40.4484 13.5517C40.5518 13.5517 40.6553 13.5517 40.7587 13.5517C42.4139 13.5 43.5001 12.3621 43.5001 10.6035Z" fill="#001B38"/>
<path d="M97.4485 10.8107C97.345 11.328 97.2933 11.8452 97.1898 12.3107C96.4657 15.3624 93.6726 17.1211 90.414 16.6556C86.7416 16.0866 84.8278 13.2418 85.5002 9.20728C86.0174 6.0521 89.0174 4.08659 92.4312 4.60383C95.1726 4.86245 97.2933 7.08659 97.345 9.87969C97.3967 10.0866 97.4485 10.2418 97.4485 10.4487V10.8107ZM94.0864 10.6038C94.1898 9.10383 93.1036 7.81072 91.6036 7.70728C91.5002 7.70728 91.4485 7.70728 91.345 7.70728C89.845 7.70728 88.6554 8.89693 88.6554 10.3452C88.6554 10.3969 88.6554 10.5004 88.6554 10.5521C88.5002 12.0521 89.5864 13.3452 91.0864 13.5004C91.1898 13.5004 91.2933 13.5004 91.3967 13.5004C92.8967 13.5521 94.1381 12.3624 94.1381 10.8624C94.0864 10.759 94.0864 10.7073 94.0864 10.6038Z" fill="#001B38"/>
<path d="M29.8966 14.7931C28.9139 16.1379 27.3104 16.8621 25.6553 16.6552C23.638 16.5517 21.9311 15.2069 21.3622 13.2931C20.3277 10.5517 21.0001 7.44827 23.0173 5.84482C24.9829 4.2931 27.6208 3.98275 29.8449 5.12068C32.0691 6.10344 32.8966 8.06896 32.9484 10.3965C33.0001 12.0517 32.9484 13.7069 32.9484 15.3103C32.9484 16.0345 32.6897 16.3448 32.0173 16.2931C31.8622 16.2931 31.6553 16.2931 31.5001 16.2931C29.7415 16.3448 30.1553 16.3965 29.8966 14.7931ZM24.1553 10.7069C24.1553 12.5172 25.138 13.6034 26.8449 13.6034C28.3966 13.6034 29.6897 12.3621 29.7415 10.7586C29.7415 10.7069 29.7415 10.6552 29.7415 10.6034C29.7932 9.10344 28.6553 7.81034 27.1553 7.70689C27.1035 7.70689 27.0518 7.70689 26.9484 7.70689C25.3966 7.70689 24.1553 8.99999 24.1553 10.5517C24.1553 10.5517 24.1553 10.6034 24.1553 10.7069Z" fill="#001B38"/>
<path d="M65.2759 11.1206C65.4311 13.2413 67.4483 14.2241 69.4139 13.293C69.7759 13.1379 70.2415 12.8792 70.5001 12.9827C71.2242 13.293 71.8449 13.7068 72.4656 14.1723C72.5173 14.2241 72.4656 14.6896 72.3104 14.8448C70.707 16.5517 68.2242 17.1723 66.0001 16.4482C63.8794 16.0344 62.2242 14.2758 61.9656 12.1034C61.8104 11.0172 61.8104 9.93097 62.0173 8.84477C62.7415 5.4827 66.207 3.7758 69.7759 4.81028C72.2587 5.4827 73.9139 7.86201 73.7587 10.3965C73.7587 11.0172 73.4483 11.1206 72.9311 11.1206C70.6552 11.1206 68.4311 11.1206 66.1552 11.1206H65.2759ZM70.2415 9.25856C69.7759 8.22408 68.7414 7.60339 67.6035 7.70683C66.6208 7.65511 65.7932 8.2758 65.5346 9.25856H70.2415Z" fill="#001B38"/>
<path d="M59.9485 12.6211C59.9485 13.5521 59.9485 14.5348 59.9485 15.4659C59.9485 16.0866 59.7416 16.3452 59.1209 16.3452C56.2243 16.2935 56.6898 16.759 56.6381 13.9659C56.6381 12.6728 56.6381 11.4314 56.6381 10.1383C56.7416 8.94864 55.914 7.86243 54.6726 7.70726C54.5691 7.70726 54.4657 7.70726 54.3622 7.70726C53.1726 7.55209 52.0864 8.4314 51.9829 9.62105C51.9829 9.77623 51.9829 9.9314 51.9829 10.0348C51.9312 11.8452 51.9312 13.6038 51.9829 15.4142C51.9829 16.0866 51.7243 16.3452 51.0519 16.3452C48.2071 16.2935 48.6726 16.759 48.6726 13.9659C48.6726 12.6728 48.6726 11.4314 48.6726 10.1383C48.7243 6.36243 51.4657 4.03485 55.1898 4.55209C57.9312 4.75898 60.0519 7.08657 59.9485 9.87967C59.9485 10.8107 59.9485 11.69 59.9485 12.6211Z" fill="#001B38"/>
<path d="M81.4656 8.06913V15.0002C81.4656 16.345 81.4656 16.345 80.1207 16.345C77.9483 16.345 78.1552 16.6553 78.1552 14.4312C78.1552 12.3622 78.1552 10.2933 78.1552 8.12086C77.2759 8.12086 76.4483 8.12086 75.6207 8.12086C74.9483 8.12086 74.6897 7.86224 74.6897 7.18982C74.7414 4.50017 74.3276 4.96568 76.9138 4.91396C77.2759 4.91396 77.638 4.91396 78.1552 4.91396C78.1552 3.62086 78.2069 2.32775 78.1552 1.08637C78.1035 0.310512 78.3621 0.000167314 79.1897 0.0518915C81.8276 0.15534 81.4656 -0.310177 81.4656 2.32775C81.4656 3.15534 81.4656 3.98293 81.4656 4.91396C82.3966 4.91396 83.2242 4.91396 84 4.91396C84.6207 4.91396 84.8794 5.17258 84.8794 5.79327C84.8276 8.53465 85.1897 8.06913 82.6035 8.12086C82.2414 8.06913 81.8794 8.06913 81.4656 8.06913Z" fill="#001B38"/>
<path d="M53.638 20.2761C53.1725 19.9657 52.6035 19.8105 52.0345 19.8105C51.4138 19.8105 50.8449 19.9657 50.3794 20.2761C49.9138 20.5864 49.5518 21.0519 49.2414 21.5692C48.9828 22.1381 48.8276 22.7588 48.8276 23.483C48.8276 24.2071 48.9828 24.8278 49.2414 25.3968C49.5518 25.9657 49.9138 26.3795 50.4311 26.6899C50.9483 27.0002 51.5173 27.1554 52.138 27.1554C52.5518 27.1554 52.9138 27.0519 53.3276 26.8968C53.7414 26.7416 54.1035 26.483 54.3621 26.2761C54.5173 26.1209 54.569 25.9657 54.5173 25.8623C54.5173 25.7588 54.4656 25.6037 54.3104 25.4485C54.2069 25.345 54.1035 25.2933 53.9483 25.2933C53.9483 25.2933 53.9483 25.2933 53.8966 25.2933C53.7414 25.2933 53.5863 25.345 53.4828 25.4485C53.3276 25.6037 53.1207 25.7071 52.8621 25.8105C52.6035 25.914 52.3449 25.9657 52.0345 25.9657C51.6207 25.9657 51.2587 25.8623 50.9483 25.6554C50.638 25.4485 50.3794 25.1381 50.1725 24.7761C50.069 24.5174 49.9656 24.2588 49.9138 23.9485H54.4138C54.569 23.9485 54.7242 23.8968 54.8276 23.7933C54.8794 23.6899 54.9828 23.5864 54.9828 23.3795C54.9828 22.7071 54.8794 22.0864 54.569 21.5692C54.4656 21.0002 54.1035 20.5864 53.638 20.2761ZM51 21.3105C51.3104 21.1037 51.6207 21.0002 51.9828 21.0002C52.3966 21.0002 52.7069 21.1037 53.0173 21.3105C53.3276 21.5174 53.5345 21.8278 53.6897 22.1899C53.7932 22.3968 53.8449 22.6037 53.8966 22.8623H50.069C50.1207 22.6037 50.1725 22.3968 50.2759 22.1899C50.4828 21.8278 50.7414 21.5174 51 21.3105Z" fill="#0CBB4E"/>
<path d="M64.4484 20.1726C64.0346 19.914 63.6208 19.7588 63.1036 19.7588C62.5863 19.7588 62.1725 19.914 61.7587 20.1726C61.5001 20.3278 61.2415 20.5864 61.0346 20.845C60.8794 20.5864 60.6208 20.3795 60.4139 20.1726C60.0001 19.914 59.5863 19.7588 59.0691 19.7588C58.6036 19.7588 58.138 19.8622 57.776 20.1726C57.6725 20.2243 57.6208 20.276 57.5691 20.3278C57.5691 20.2243 57.5174 20.1209 57.4139 20.0174C57.3105 19.914 57.207 19.8622 57.0001 19.8622C56.8449 19.8622 56.6898 19.914 56.5863 20.0174C56.4829 20.1209 56.4312 20.2243 56.4312 20.4829V26.4829C56.4312 26.6381 56.4829 26.7933 56.5863 26.8967C56.6898 27.0002 56.8449 27.1036 57.0001 27.1036C57.1553 27.1036 57.3105 27.0519 57.4139 26.8967C57.5174 26.7933 57.5691 26.6381 57.5691 26.4829V22.7071C57.5691 22.1898 57.7243 21.776 57.9829 21.4657C58.2932 21.1553 58.6036 21.0002 59.0691 21.0002C59.4829 21.0002 59.7932 21.1553 60.0518 21.5174C60.3105 21.8795 60.4656 22.345 60.4656 22.914V26.4829C60.4656 26.6381 60.5174 26.7933 60.6208 26.8967C60.7243 27.0002 60.8794 27.1036 61.0346 27.1036C61.1898 27.1036 61.3449 27.0519 61.4484 26.8967C61.5518 26.7933 61.6036 26.6381 61.6036 26.4829V23.0691V22.8105C61.6036 22.2415 61.707 21.776 62.0174 21.4657C62.276 21.1553 62.6381 21.0002 63.1036 21.0002C63.5174 21.0002 63.8277 21.1553 64.0863 21.5174C64.345 21.8795 64.5001 22.345 64.5001 22.914V26.4829C64.5001 26.6381 64.5518 26.7933 64.6553 26.8967C64.7587 27.0002 64.9139 27.1036 65.0691 27.1036C65.276 27.1036 65.3794 27.0519 65.5346 26.8967C65.6381 26.7933 65.6898 26.6381 65.6898 26.4829V22.914C65.6898 22.2933 65.5863 21.776 65.3794 21.3105C65.1725 20.845 64.8622 20.4829 64.4484 20.1726Z" fill="#0CBB4E"/>
<path d="M72.5173 20.276C72.0001 19.9657 71.4311 19.7588 70.7587 19.7588C70.138 19.7588 69.5173 19.914 69.0001 20.2243C68.4829 20.5347 68.0691 21.0002 67.7587 21.5174C67.4484 22.0347 67.2932 22.6553 67.2932 23.3795V29.3278C67.2932 29.4829 67.3449 29.6381 67.4484 29.7415C67.5518 29.845 67.707 29.9484 67.8622 29.9484C68.0691 29.9484 68.1725 29.8967 68.3277 29.7415C68.4311 29.6381 68.4829 29.4829 68.4829 29.3278V26.2243C68.6898 26.4312 68.8967 26.5864 69.1036 26.6898C69.5691 26.9484 70.0863 27.1036 70.707 27.1036C71.3794 27.1036 71.9484 26.9484 72.4656 26.5864C72.9829 26.276 73.3967 25.8105 73.707 25.2415C74.0173 24.6726 74.1725 24.0519 74.1725 23.3795C74.1725 22.7071 74.0173 22.0347 73.707 21.4657C73.4484 21.0519 73.0346 20.5864 72.5173 20.276ZM70.7587 26.0174C70.3449 26.0174 69.9829 25.914 69.6208 25.7071C69.3105 25.5002 69.0001 25.1898 68.7932 24.8278C68.5863 24.4657 68.4829 24.0002 68.4829 23.5347C68.4829 23.0691 68.5863 22.6036 68.7932 22.2415C69.0001 21.8795 69.2587 21.5691 69.6208 21.3622C69.9311 21.1553 70.3449 21.0519 70.7587 21.0519C71.1725 21.0519 71.5863 21.1553 71.8967 21.3622C72.207 21.5691 72.5174 21.8795 72.7242 22.2415C72.9311 22.6036 73.0346 23.0691 73.0346 23.5347C73.0346 24.0002 72.9311 24.4657 72.7242 24.8278C72.5174 25.1898 72.2587 25.5002 71.8967 25.7071C71.5346 25.914 71.1725 26.0174 70.7587 26.0174Z" fill="#0CBB4E"/>
<path d="M77.3793 25.8624H77.069C76.9655 25.8624 76.8621 25.8624 76.7069 25.6038C76.6034 25.3969 76.5 25.1382 76.5 24.8279V17.5865C76.5 17.4313 76.4483 17.2762 76.3448 17.121C76.2931 17.0175 76.1379 16.9658 75.931 16.9658C75.7759 16.9658 75.6207 17.0175 75.5172 17.121C75.4138 17.2244 75.3621 17.3796 75.3621 17.5865V24.8279C75.3621 25.2417 75.4138 25.6555 75.569 25.9658C75.7241 26.3279 75.931 26.5865 76.1896 26.7934C76.4483 27.0003 76.7586 27.1038 77.1207 27.1038H77.3276C77.5345 27.1038 77.6379 27.052 77.7931 26.8969C77.8965 26.7934 77.9483 26.6382 77.9483 26.4831C77.9483 26.3279 77.8965 26.1727 77.7931 26.0693C77.6896 25.9141 77.5345 25.8624 77.3793 25.8624Z" fill="#0CBB4E"/>
<path d="M82.9656 20.2761C82.5001 19.9657 81.9311 19.8105 81.3622 19.8105C80.7415 19.8105 80.1725 19.9657 79.707 20.2761C79.2415 20.5864 78.8794 21.0519 78.5691 21.5692C78.3104 22.1381 78.1553 22.7588 78.1553 23.483C78.1553 24.2071 78.3104 24.8278 78.5691 25.3968C78.8794 25.9657 79.2415 26.3795 79.7587 26.6899C80.276 27.0002 80.8449 27.1554 81.4656 27.1554C81.8794 27.1554 82.2415 27.0519 82.6553 26.8968C83.0691 26.7416 83.4311 26.483 83.6898 26.2761C83.8449 26.1209 83.8967 25.9657 83.8967 25.8623C83.8967 25.7588 83.8449 25.6037 83.6898 25.4485C83.5863 25.345 83.4829 25.2933 83.3277 25.2933C83.3277 25.2933 83.3277 25.2933 83.276 25.2933C83.1208 25.2933 82.9656 25.345 82.8622 25.4485C82.707 25.6037 82.5001 25.7071 82.2415 25.8105C81.9829 25.914 81.7242 25.9657 81.4139 25.9657C81.0001 25.9657 80.638 25.8623 80.3277 25.6554C80.0173 25.4485 79.7587 25.1381 79.5518 24.7761C79.4484 24.5174 79.3449 24.2588 79.2932 23.9485H83.7415C83.8967 23.9485 84.0518 23.8968 84.1553 23.7933C84.207 23.6899 84.3104 23.5864 84.3104 23.3795C84.3104 22.7071 84.207 22.0864 83.8967 21.5692C83.7932 21.0002 83.4311 20.5864 82.9656 20.2761ZM80.3277 21.3105C80.638 21.1037 80.9484 21.0002 81.3104 21.0002C81.7242 21.0002 82.0346 21.1037 82.3449 21.3105C82.6553 21.5174 82.8622 21.8278 83.0173 22.1899C83.1208 22.3968 83.1725 22.6037 83.2242 22.8623H79.3967C79.4484 22.6037 79.5001 22.3968 79.6035 22.1899C79.8104 21.8278 80.0691 21.5174 80.3277 21.3105Z" fill="#0CBB4E"/>
<path d="M90.2586 20.276C89.7413 19.9657 89.1724 19.7588 88.5 19.7588C87.8275 19.7588 87.2586 19.914 86.7413 20.276C86.2241 20.6381 85.8103 21.0519 85.4999 21.6209C85.1896 22.1898 85.0344 22.8105 85.0344 23.5347C85.0344 24.2071 85.1896 24.8278 85.4999 25.3967C85.8103 25.9657 86.2241 26.4312 86.7413 26.7415C87.2586 27.0519 87.8275 27.2588 88.5 27.2588C89.1724 27.2588 89.7413 27.1036 90.2586 26.7415C90.7758 26.4312 91.1896 25.9657 91.4999 25.3967C91.8103 24.8278 91.9655 24.2071 91.9655 23.5347C91.9655 22.8622 91.8103 22.1898 91.4999 21.6209C91.1896 21.0519 90.7758 20.5864 90.2586 20.276ZM88.5 21.0002C88.9137 21.0002 89.3275 21.1036 89.6379 21.3105C89.9482 21.5174 90.2586 21.8278 90.4137 22.1898C90.6206 22.5519 90.7241 23.0174 90.7241 23.4829C90.7241 23.9484 90.6206 24.414 90.4137 24.776C90.2068 25.1381 89.9482 25.4484 89.6379 25.6553C89.3275 25.8622 88.9137 25.9657 88.5 25.9657C88.0862 25.9657 87.7241 25.8622 87.362 25.6553C87.0517 25.4484 86.7413 25.1381 86.5344 24.776C86.3275 24.414 86.2241 23.9484 86.2241 23.4829C86.2241 23.0174 86.3275 22.5519 86.5344 22.1898C86.7413 21.8278 86.9999 21.5174 87.362 21.3105C87.7241 21.1036 88.0862 21.0002 88.5 21.0002Z" fill="#0CBB4E"/>
<path d="M97.3448 24.1036C97.1896 23.7932 96.931 23.5346 96.569 23.3277C96.2069 23.1208 95.7414 22.9657 95.1207 22.8622C94.7069 22.8105 94.3965 22.707 94.1896 22.6036C93.9827 22.5001 93.8276 22.3967 93.7758 22.2932C93.6724 22.1898 93.6724 22.0346 93.6724 21.8794C93.6724 21.6208 93.7758 21.4657 93.9827 21.2588C94.1896 21.1036 94.5 21.0001 94.9138 21.0001C95.2241 21.0001 95.4827 21.0519 95.7414 21.1553C96 21.2588 96.1552 21.4657 96.3103 21.6726C96.4138 21.8277 96.5172 21.8794 96.6724 21.9312C96.7241 21.9312 96.7759 21.9312 96.7759 21.9312C96.8793 21.9312 96.9827 21.9312 97.0862 21.8277C97.2931 21.7243 97.3448 21.5691 97.3965 21.4139C97.4483 21.2588 97.3965 21.1036 97.2931 20.9484C97.0345 20.5863 96.7241 20.276 96.3621 20.0691C95.9483 19.8622 95.4827 19.707 94.9138 19.707C94.4483 19.707 94.0345 19.8105 93.6724 19.9657C93.3103 20.1208 93 20.3794 92.7931 20.6898C92.5862 21.0001 92.4827 21.4139 92.4827 21.8794C92.4827 22.3967 92.6896 22.8105 93.1034 23.2243C93.5172 23.5863 94.0862 23.845 94.9138 23.9484C95.4827 24.0519 95.8448 24.1553 96.1034 24.3622C96.3103 24.5174 96.4138 24.7243 96.4138 24.9829C96.4138 25.2415 96.3103 25.4484 96.1034 25.6553C95.8965 25.8622 95.4827 25.9657 94.9138 25.9657C94.5517 25.9657 94.2414 25.9139 93.9827 25.8105C93.7241 25.707 93.5172 25.5519 93.3103 25.2932C93.2069 25.1898 93.1034 25.0863 92.9483 25.0346C92.8965 25.0346 92.8965 25.0346 92.8448 25.0346C92.7414 25.0346 92.5862 25.0863 92.4827 25.1381C92.3276 25.2415 92.2758 25.3967 92.2241 25.5519C92.2241 25.707 92.2241 25.8622 92.3276 26.0174C92.6379 26.4312 93.0517 26.7415 93.5172 26.8967C93.9827 27.0519 94.3965 27.1553 94.8621 27.1553C95.3276 27.1553 95.7414 27.0519 96.1552 26.8967C96.5689 26.7415 96.8793 26.4829 97.1379 26.1725C97.3965 25.8622 97.5517 25.4484 97.5517 24.9829C97.6034 24.7243 97.5 24.3622 97.3448 24.1036Z" fill="#0CBB4E"/>
<path d="M11.069 10.3451C11.069 10.19 11.069 9.98308 11.069 9.82791C11.069 6.77618 8.58621 4.2417 5.53448 4.2417C2.48276 4.2417 0 6.72446 0 9.77618L0.0517241 16.1383C0.0517241 16.552 0.362069 16.8624 0.775862 16.8624H2.84483C3.25862 16.8624 3.62069 16.5003 3.62069 16.0348V12.7762V10.4486C3.62069 9.36239 4.5 8.48308 5.58621 8.48308C6.56897 8.48308 7.34483 9.20722 7.5 10.1383L7.55172 16.19C7.55172 16.6038 7.86207 16.9141 8.27586 16.9141H10.3448C10.8103 16.9141 11.1724 16.552 11.1724 16.0865L11.069 10.3451Z" fill="#3DC971"/>
<path d="M18.569 10.3451C18.569 10.19 18.569 9.98308 18.569 9.82791C18.569 6.77618 16.0862 4.2417 13.0345 4.2417C9.98276 4.2417 7.5 6.72446 7.5 9.77618L7.55172 16.1383C7.55172 16.552 7.86207 16.8624 8.27586 16.8624H10.3448C10.8103 16.8624 11.1724 16.5003 11.1724 16.0348L11.1207 12.7245V10.3969C11.1207 9.31067 12 8.43135 13.0862 8.43135C14.069 8.43135 14.8448 9.15549 15 10.0865V16.1383C15 16.552 15.3103 16.8624 15.7241 16.8624H17.7931C18.2586 16.8624 18.6207 16.5003 18.6207 16.0348L18.569 10.3451Z" fill="#0CBB4E"/>
</svg>
